# xmcd
#
# Track frame offsets: 
#        150
#        9781
#        22657
#        37690
#        66948
#        86120
#        103100
#        115611
#        138251
#        159191
#        178128
#
# Disc length: 2704 seconds
#
# Revision: 0
# Processed by: cddbd v1.5.1PL0 Copyright (c) Steve Scherf et al.
# Submitted via: ExactAudioCopy v0.95a5
#
DISCID=750a8e0b
DTITLE=J. B. Beverley and the Wayward Drifters - Highball
DYEAR=2004
DGENRE=Country
TTITLE0=Shoulda Thought About It (Live)
TTITLE1=Memories Of You
TTITLE2=Lonesome, Loaded, and Cold (Live)
TTITLE3=Ghosts Of Old DC
TTITLE4=Highway Blue (Live)
TTITLE5=Drinkin' Bourbon
TTITLE6=Chase Down These Blues (Live)
TTITLE7=Thank You For Giving Me The Blues
TTITLE8=Lonely Road (Live)
TTITLE9=Raining In Philly (Live)
TTITLE10=Wayward Drifter (Live)
EXTD=
EXTT0=
EXTT1=
EXTT2=
EXTT3=
EXTT4=
EXTT5=
EXTT6=
EXTT7=
EXTT8=
EXTT9=
EXTT10=
PLAYORDER=
